<svg xmlns="http://www.w3.org/2000/svg" version="1.1" xmlns:xlink="http://www.w3.org/1999/xlink" width="512" height="512" x="0" y="0" viewBox="0 0 512 512" style="enable-background:new 0 0 512 512" xml:space="preserve" class="hovered-paths"><g><path fill="#ffffff" d="M423.95 461.278c0-23.345 18.935-42.295 42.296-42.295H96.458c-23.36 0-42.311 18.95-42.311 42.295 0 23.378 18.951 42.328 42.311 42.328h369.788c-23.361 0-42.296-18.95-42.296-42.328z" opacity="1" data-original="#fff3e4" class=""></path><path fill="#505050" d="M96.458 427.377h369.788V0H96.458c-23.36 0-49.771 18.918-49.771 42.295L45.754 463l.042-.061C46.678 490.14 69.064 512 96.458 512h369.788v-16.787H96.458c-18.705 0-33.918-15.213-33.918-33.935.001-18.688 15.214-33.901 33.918-33.901z" opacity="1" data-original="#005a2b" class=""></path><path fill="#d2ab67" d="M96.458 0h369.788v410.59H96.458z" opacity="1" data-original="#6ea240" class="hovered-path"></path></g></svg>