<svg xmlns="http://www.w3.org/2000/svg" version="1.1" xmlns:xlink="http://www.w3.org/1999/xlink" width="512" height="512" x="0" y="0" viewBox="0 0 512 512" style="enable-background:new 0 0 512 512" xml:space="preserve" class=""><g><path d="M386.3 384H77.7c-34 0-61.7-27.7-61.7-61.7V189.7c0-34 27.7-61.7 61.7-61.7h308.6c34 0 61.7 27.7 61.7 61.7v132.6c0 34-27.7 61.7-61.7 61.7zM77.7 160C61.3 160 48 173.3 48 189.7v132.6c0 16.4 13.3 29.7 29.7 29.7h308.6c16.4 0 29.7-13.3 29.7-29.7V189.7c0-16.4-13.3-29.7-29.7-29.7z" fill="#000000" opacity="1" data-original="#000000" class=""></path><path d="M89.7 198.9h284.6c2.2 0 4 1.8 4 4V309c0 2.2-1.8 4-4 4H89.7c-2.2 0-4-1.8-4-4V202.9c0-2.2 1.8-4 4-4z" fill="#000000" opacity="1" data-original="#000000" class=""></path><path d="M374.3 329.1H89.7c-11 0-20-9-20-20V202.9c0-11 9-20 20-20h284.6c11 0 20 9 20 20V309c0 11.1-9 20.1-20 20.1zm-272.6-32h260.6V215H101.7zM480 309.3c-8.8 0-16-7.2-16-16v-74.7c0-8.8 7.2-16 16-16s16 7.2 16 16v74.7c0 8.9-7.2 16-16 16z" fill="#000000" opacity="1" data-original="#000000" class=""></path></g></svg>