<svg xmlns="http://www.w3.org/2000/svg" version="1.1" xmlns:xlink="http://www.w3.org/1999/xlink" width="512" height="512" x="0" y="0" viewBox="0 0 330 330" style="enable-background:new 0 0 512 512" xml:space="preserve" class="hovered-paths"><g><path d="M15 60h300c8.284 0 15-6.716 15-15s-6.716-15-15-15H15C6.716 30 0 36.716 0 45s6.716 15 15 15zM55 90c-8.284 0-15 6.716-15 15s6.716 15 15 15h220c8.284 0 15-6.716 15-15s-6.716-15-15-15H55zM315 150H15c-8.284 0-15 6.716-15 15s6.716 15 15 15h300c8.284 0 15-6.716 15-15s-6.716-15-15-15zM315 270H15c-8.284 0-15 6.716-15 15s6.716 15 15 15h300c8.284 0 15-6.716 15-15s-6.716-15-15-15zM275 240c8.284 0 15-6.716 15-15s-6.716-15-15-15H55c-8.284 0-15 6.716-15 15s6.716 15 15 15h220z" fill="#000000" opacity="1" data-original="#000000" class="hovered-path"></path></g></svg>