<svg xmlns="http://www.w3.org/2000/svg" version="1.1" xmlns:xlink="http://www.w3.org/1999/xlink" width="512" height="512" x="0" y="0" viewBox="0 0 512 512" style="enable-background:new 0 0 512 512" xml:space="preserve" class=""><g><path d="m450.482 138.415-20.892-15.167L270.276 7.582l-.003-.001c-13.259-9.626-25.551-2.097-28.068-.347L0 183.078v312.785c0 7.376 5.979 13.357 13.357 13.357h485.287c7.377 0 13.357-5.98 13.357-13.357V183.078l-61.519-44.663z" style="" fill="#ffffff" data-original="#f4b846" class="" opacity="1"></path><path d="m330.693 183.077 125.615 40.432L270.496 358.41c-12.148 8.819-22.496 4.302-26.822 1.575l-2.169-1.575L90.921 249.086l21.247-66.009H0v312.785c0 7.376 5.979 13.357 13.357 13.357h485.287c7.377 0 13.357-5.98 13.357-13.357V183.077H330.693z" style="" fill="#ffffff" data-original="#f4b846" class="" opacity="1"></path><g style="opacity:0.1;"><path d="M17.615 495.862V183.077H0v312.785c0 7.376 5.979 13.357 13.357 13.357h17.615c-7.378 0-13.357-5.981-13.357-13.357z" style="" fill="#231f20" data-original="#231f20" class=""></path></g><path d="m427.077 214.102 29.231 9.409-.783.567L512 183.077H330.693z" style="" fill="#f8f8f8" data-original="#dd8536" class="" opacity="1"></path><path d="m241.506 358.41 2.169 1.575c4.326 2.727 14.674 7.244 26.822-1.575l185.81-134.9-125.615-40.432-177.53-57.144-.008-.002c-18.048-5.809-24.912 7.945-26.791 13.048L90.922 249.087 241.506 358.41z" style="" fill="#6ac6d8" data-original="#6ac6d8" class=""></path><path d="M143.274 144.702c1.638-4.45 6.666-14.776 18.364-16.039l-8.476-2.728-.008-.002c-18.048-5.809-24.912 7.945-26.791 13.048L90.922 249.087l15.201 11.035 37.151-115.42z" style="opacity:0.1;enable-background:new ;" fill="#231f20" data-original="#231f20" class=""></path><path d="M90.922 249.087v-.001l21.246-66.009H0z" style="" fill="#f8f8f8" data-original="#dd8536" class="" opacity="1"></path><path d="M238.466 202.27c-4.389-1.405-9.091 1-10.505 5.389-1.414 4.388 1 9.091 5.387 10.505l159.575 51.364 16.738-12.152-171.195-55.106zM178.372 200.421l30.415 9.789a8.365 8.365 0 0 0 2.56.403 8.352 8.352 0 0 0 7.944-5.792 8.348 8.348 0 0 0-5.388-10.505l-30.415-9.789c-4.388-1.408-9.092 1.002-10.503 5.389-1.415 4.388.999 9.091 5.387 10.505zM159.097 224.47c-1.414 4.388 1 9.091 5.388 10.505l191.243 61.558 16.738-12.152-202.865-65.299c-4.389-1.407-9.092 1-10.504 5.388zM289.823 305.522c-1.414 4.388 1 9.091 5.387 10.505l23.324 7.507 16.739-12.152-34.946-11.248c-4.389-1.411-9.093 1-10.504 5.388zM276.172 292.359l-120.46-38.773c-4.387-1.405-9.091 1.001-10.505 5.389-1.414 4.388 1 9.091 5.389 10.505l120.46 38.773a8.36 8.36 0 0 0 2.56.403 8.35 8.35 0 0 0 2.556-16.297z" style="" fill="#9ce7f6" data-original="#9ce7f6" class=""></path><path d="M511.824 497.933 316.123 325.285l-13.844 10.05 197.063 173.848c6.353-.329 11.52-5.086 12.482-11.25zM12.658 509.184l197.063-173.85-13.844-10.05L.177 497.933c.962 6.164 6.128 10.921 12.481 11.251z" style="" fill="#ffffff" data-original="#e2a037" class="" opacity="1"></path></g></svg>