<svg xmlns="http://www.w3.org/2000/svg" version="1.1" xmlns:xlink="http://www.w3.org/1999/xlink" width="512" height="512" x="0" y="0" viewBox="0 0 68 68" style="enable-background:new 0 0 512 512" xml:space="preserve" class=""><g><path fill="#e0e0e0" d="m66.002 39.372-13.45 7.17-4.77 2.54-4.32 2.3-9.47 5.05-9.78-3.4-20.58-7.14-1.63-6.52 8.66-18.79c.41-.89 1.12-1.57 1.98-1.96.5-.21 1.04-.33 1.6-.33h39.51c1.54 0 2.94.89 3.58 2.29z" opacity="1" data-original="#f9ac00" class=""></path><path fill="#ffffff" d="M65.998 39.373v23.464A3.164 3.164 0 0 1 62.834 66H5.162a3.164 3.164 0 0 1-3.164-3.163V39.373h17.59a3.164 3.164 0 0 1 3.163 3.164v2.298A3.164 3.164 0 0 0 25.915 48H42.08a3.164 3.164 0 0 0 3.164-3.164v-2.298a3.164 3.164 0 0 1 3.163-3.164z" opacity="1" data-original="#fdc72e" class=""></path><path fill="#e0e0e0" d="M45.529 57.563v.01a2.014 2.014 0 0 1-2.015 2.015H26.02a2.014 2.014 0 0 1-2.015-2.015c0-.558.232-1.065.59-1.434a2.06 2.06 0 0 1 1.435-.59h17.484a2.02 2.02 0 0 1 2.015 2.014z" opacity="1" data-original="#f9ac00" class=""></path><path fill="#4f5d99" d="M44.76 56.794v.01a2.014 2.014 0 0 1-2.015 2.015H25.251a2.014 2.014 0 0 1-2.015-2.015c0-.558.233-1.065.59-1.434a2.06 2.06 0 0 1 1.435-.59h17.484a2.02 2.02 0 0 1 2.015 2.014z" opacity="1" data-original="#4f5d99" class=""></path><g opacity=".2"><path fill="#dcdad7" d="M48.382 66.002h-19.81l-4.36-12.97-11.57-34.41c.5-.21 1.04-.33 1.6-.33h18.09l11.13 33.09zM59.092 66.002h-5.62l-5.69-16.92-10.36-30.79h5.63l9.5 28.25z" opacity="1" data-original="#ffffff" class=""></path></g><path fill="#8f9cda" d="m25.615 31.785 7.454 8.73c.49.57 1.358.57 1.847 0l7.468-8.717c.679-.8.108-2.022-.924-2.022h-2.566V2.964a.966.966 0 0 0-.966-.966H30.07a.966.966 0 0 0-.966.966v26.811h-2.566c-1.046 0-1.602 1.222-.923 2.01z" opacity="1" data-original="#ed524e" class=""></path></g></svg>