<svg xmlns="http://www.w3.org/2000/svg" version="1.1" xmlns:xlink="http://www.w3.org/1999/xlink" width="512" height="512" x="0" y="0" viewBox="0 0 363.062 363.062" style="enable-background:new 0 0 512 512" xml:space="preserve" class=""><g><path d="M314.113 112.957v234.038c0 8.836-7.23 16.066-16.065 16.066H100.473c-8.836 0-16.065-7.23-16.065-16.066V112.957h229.705z" style="" fill="#dec100" data-original="#009bde" class="" opacity="1"></path><path d="M84.406 333.308v13.688c0 8.836 7.229 16.066 16.065 16.066h197.576c8.836 0 16.065-7.23 16.065-16.066v-13.688H84.406z" style="" fill="#dec100" data-original="#c3c6c8" class="" opacity="1"></path><path d="M314.113 76.891c0-18.608-15.082-33.692-33.689-33.692H118.1c-18.607 0-33.692 15.084-33.692 33.692v36.066h229.707V76.891h-.002z" style="" fill="#dec100" data-original="#333e48" class="" opacity="1"></path><path d="M272.228 112.957v234.038c0 8.836-7.229 16.066-16.065 16.066H65.014c-8.836 0-16.065-7.23-16.065-16.066V112.957h223.279z" style="" fill="#dec100" data-original="#77b8e8" class="" opacity="1"></path><path d="M272.228 76.891c0-18.608-15.084-33.692-33.691-33.692h-155.9c-18.607 0-33.689 15.084-33.689 33.692v36.066h223.28V76.891z" style="" fill="#dec100" data-original="#3e4a57" class="" opacity="1"></path><circle cx="230.93" cy="67.12" r="7.854" style="" fill="#ffffff" data-original="#ffffff" class=""></circle><circle cx="230.93" cy="91.823" r="7.854" style="" fill="#d16a70" data-original="#d16a70" class=""></circle><path d="M89.908 0h170.653v43.199H89.908z" style="" fill="#ffffff" data-original="#e8e8e8" class="" opacity="1"></path><path d="M106.921 21.421h131.862v6.795H106.921zM106.921 36.405h131.862v6.794H106.921z" style="" fill="#dcd9d9" data-original="#a4a9ad" class="" opacity="1"></path><path d="M89.908 112.957h17.013v137.667H89.908zM120.637 112.957h17.016v137.667h-17.016zM151.364 112.957h17.016v137.667h-17.016zM182.092 112.957h17.016v137.667h-17.016zM212.821 112.957h17.014v137.667h-17.014zM243.549 112.957h17.014v137.667h-17.014zM48.947 333.308v13.688c0 8.836 7.229 16.066 16.065 16.066h191.149c8.836 0 16.065-7.23 16.065-16.066v-13.688H48.947z" style="" fill="#ffffff" data-original="#e8e8e8" class="" opacity="1"></path><path d="M272.228 112.957v234.038c0 8.836-7.229 16.066-16.065 16.066H65.014c-8.836 0-16.065-7.23-16.065-16.066V112.957h223.279z" style="opacity:0.4;enable-background:new ;" fill="#dec100" data-original="#77b8e8" class="" opacity="1"></path></g></svg>