<svg xmlns="http://www.w3.org/2000/svg" version="1.1" xmlns:xlink="http://www.w3.org/1999/xlink" width="512" height="512" x="0" y="0" viewBox="0 0 1706.66 1706.66" style="enable-background:new 0 0 512 512" xml:space="preserve" fill-rule="evenodd" class="hovered-paths"><g><path fill="#ffffff" d="M1119.32 1582.8h-967.4C68.16 1582.8 0 1514.63 0 1430.88V275.77C0 192 68.15 123.86 151.92 123.86h967.42c83.76 0 151.92 68.15 151.92 151.92 0 387.58-.01 757.87-.01 1155.1 0 83.75-68.16 151.92-151.92 151.92z" opacity="1" data-original="#cbdcff" class="hovered-path"></path><g fill="#204067"><path d="M1025.65 558.46H226.98c-26.2 0-26.2-39.8 0-39.8h798.67c26.2 0 26.2 39.8 0 39.8zM948.55 768.3H226.98c-26.2 0-26.2-39.8 0-39.8h721.55c26.19 0 26.21 39.8.02 39.8zM837 978.15H226.98c-26.2 0-26.2-39.8 0-39.8h610.01c26.19 0 26.2 39.8.02 39.8zM886.08 1188h-659.1c-26.2 0-26.2-39.8 0-39.8h659.1c26.2 0 26.2 39.8 0 39.8z" fill="#ffffff" opacity="1" data-original="#204067" class=""></path></g><path fill="#ffb800" d="m821.18 1107.77 66.81-216.07c.48-1.52 1.28-2.91 2.35-4.08l646.53-703.35c20.35-22.14 54.91-23.59 77.05-3.24l75.16 69.09c22.11 20.32 23.57 54.94 3.24 77.05l-646.54 703.35a10.876 10.876 0 0 1-3.85 2.68l-209.54 85.03c-7.1.3-10.06-4.48-11.22-10.46z" opacity="1" data-original="#ffb800" class=""></path><path fill="#ffaa83" d="m821.18 1107.77 64.67-209.19 149.37 137.37-202.81 82.28c-7.1.3-10.06-4.48-11.22-10.46z" opacity="1" data-original="#ffaa83"></path><path fill="#666666" d="m821.18 1107.77 24.7-81.21c21.86 16.75 46.77 39.66 65.28 60.04l-78.76 31.63c-7.1.3-10.06-4.48-11.22-10.46z" opacity="1" data-original="#666666"></path><path fill="#ff9500" d="M1014.45 897.35c-.11-2.75.82-5.56 2.83-7.75l499.36-543.23c9.6-10.45 25.46 4.14 15.86 14.58l-499.35 543.24c-6.52 7.09-18.3 2.66-18.7-6.83zM885.95 898.22c3.55-11.37 2.18-8.2 11.68-18.54l155.45 142.9c-9.51 10.35-6.45 8.7-17.48 13.2L885.95 898.21z" opacity="1" data-original="#ff9500" class=""></path><path fill="#ff9500" d="m940.2 833.38 14.58-15.87 155.46 142.9-14.59 15.87z" opacity="1" data-original="#ff9500" class=""></path><path fill="#3bb064" d="m1441.45 288.07 37.02-40.27 155.46 142.9-37.02 40.27z" opacity="1" data-original="#3bb064" class=""></path><path fill="#d62966" d="m1478.47 247.8 58.41-63.54c20.35-22.14 54.91-23.59 77.05-3.24l75.16 69.09c22.11 20.32 23.57 54.94 3.24 77.05l-58.39 63.52-155.48-142.88z" opacity="1" data-original="#d62966" class=""></path></g></svg>