<svg xmlns="http://www.w3.org/2000/svg" version="1.1" xmlns:xlink="http://www.w3.org/1999/xlink" width="512" height="512" viewBox="0 0 512 512" style="enable-background:new 0 0 512 512" xml:space="preserve">
  <defs>
    <linearGradient id="grad1" x1="0%" y1="0%" x2="100%" y2="100%">
      <stop offset="0%" stop-color="#3D9FFE" />
      <stop offset="100%" stop-color="#105CF4" />
    </linearGradient>
  </defs>
  <g>
    <circle cx="219.968" cy="219.967" r="79.131" transform="rotate(-6.78 220.755 220.706)" fill="url(#grad1)" />
    <path fill-rule="evenodd" d="M256 4.054C117.233 4.054 4.054 117.233 4.054 256S117.233 507.946 256 507.946 507.946 394.767 507.946 256 394.767 4.054 256 4.054zm145.352 397.295c-9.362 9.366-24.679 9.366-34.039 0l-47.907-47.905c-3.548-3.55-4.3-8.844-2.281-13.15L289.833 313c-19.454 14.634-43.646 23.308-69.865 23.308-64.254 0-116.342-52.09-116.342-116.342s52.088-116.341 116.342-116.341S336.31 155.714 336.31 219.966c0 26.22-8.677 50.412-23.311 69.866l27.291 27.291c4.305-2.017 9.607-1.267 13.154 2.283l47.907 47.905c9.361 9.36 9.361 24.68 0 34.037z" fill="url(#grad1)" />
  </g>
</svg>
