<svg xmlns="http://www.w3.org/2000/svg" version="1.1" xmlns:xlink="http://www.w3.org/1999/xlink" width="512" height="512" x="0" y="0" viewBox="0 0 20 20" style="enable-background:new 0 0 512 512" xml:space="preserve" class=""><g><g data-name="Layer 2"><path d="M2 3h16a1 1 0 0 0 0-2H2a1 1 0 0 0 0 2zM18 5H2a1 1 0 0 0 0 2h16a1 1 0 0 0 0-2zM18 9H2a1 1 0 0 0 0 2h16a1 1 0 0 0 0-2zM18 13H2a1 1 0 0 0 0 2h16a1 1 0 0 0 0-2zM18 17H2a1 1 0 0 0 0 2h16a1 1 0 0 0 0-2z" fill="#000000" opacity="1" data-original="#000000" class=""></path></g></g></svg>